# xmcd
#
# Track frame offsets: 
#        150
#        17510
#        33774
#        51459
#        74108
#        87837
#        106474
#        124898
#        139555
#        157670
#        182042
#        201538
#
# Disc length: 2964 seconds
#
# Revision: 0
# Processed by: cddbd v1.5.2PL0 Copyright (c) Steve Scherf et al.
# Submitted via: ExactAudioCopyFreeDBPlugin 1.0
#
DISCID=a50b920c
DTITLE=Chris and Mike - These Are The Days
DYEAR=2009
DGENRE=Blues
TTITLE0=These Are The Days
TTITLE1=Hit The Road
TTITLE2=(Another) NaNa-Song
TTITLE3=Little Big Star
TTITLE4=Fast And Furious
TTITLE5=No One Knows
TTITLE6=Cradlesong
TTITLE7=Beat 'N' Roll
TTITLE8=One Hundred Times Heard
TTITLE9=Red Light
TTITLE10=Walkin'
TTITLE11=Nightlive
EXTD=
EXTT0=
EXTT1=
EXTT2=
EXTT3=
EXTT4=
EXTT5=
EXTT6=
EXTT7=
EXTT8=
EXTT9=
EXTT10=
EXTT11=
PLAYORDER=
